<svg xmlns="http://www.w3.org/2000/svg" width="16" height="16" viewBox="0 0 16 16">
  <path id="Fill_1110" data-name="Fill 1110" d="M13.819,16H2.182A2.184,2.184,0,0,1,0,13.819V9.365L1.928,1.652A2.18,2.18,0,0,1,4.046,0h7.909a2.18,2.18,0,0,1,2.118,1.652L16,9.365v4.453A2.184,2.184,0,0,1,13.819,16ZM1.454,10.182v3.637a.728.728,0,0,0,.727.727H13.819a.728.728,0,0,0,.727-.727V10.182H10.911l-.039.027a.485.485,0,0,0-.122.2,2.91,2.91,0,0,1-5.5,0,.494.494,0,0,0-.122-.2l-.04-.027H1.454ZM4.046,1.454a.727.727,0,0,0-.707.551L1.659,8.727H5.091a1.684,1.684,0,0,1,1.534,1.2,1.456,1.456,0,0,0,2.75,0,1.682,1.682,0,0,1,1.534-1.2h3.433l-1.68-6.722a.729.729,0,0,0-.707-.551Zm7.591,5.818H4.363a.727.727,0,1,1,0-1.454h7.273a.727.727,0,1,1,0,1.454Zm-.727-2.91H5.091a.727.727,0,1,1,0-1.454h5.818a.727.727,0,1,1,0,1.454Z" transform="translate(0)" fill="#fff"/>
</svg>
