<svg xmlns="http://www.w3.org/2000/svg" width="18" height="12.752" viewBox="0 0 18 12.752">
  <path id="Fill_1029" data-name="Fill 1029" d="M9,12.752a.746.746,0,0,1-.53-.219l-2.25-2.25A.751.751,0,1,1,7.28,9.218l.97.975V6a.75.75,0,1,1,1.5,0v4.192l.97-.975a.751.751,0,0,1,1.06,1.065l-2.25,2.25A.746.746,0,0,1,9,12.752Zm4.125,0H12.75a.75.75,0,1,1,0-1.5h.374a3.376,3.376,0,0,0,.4-6.727.75.75,0,0,1-.576-.4,4.877,4.877,0,0,0-9.2,2,.749.749,0,0,1-.563.69A2.252,2.252,0,0,0,3.75,11.25h1.5a.75.75,0,1,1,0,1.5H3.75A3.749,3.749,0,0,1,2.3,5.542,6.375,6.375,0,0,1,14.093,3.1a4.875,4.875,0,0,1-.968,9.653Z" transform="translate(0 0)" fill="#fff"/>
</svg>
