<svg xmlns="http://www.w3.org/2000/svg" width="50.012" height="63.074" viewBox="0 0 50.012 63.074">
  <g id="Group_2" data-name="Group 2" transform="translate(-14.993 -8.469)">
    <path id="_528186832" d="M23.854,66.406v3.476a1.791,1.791,0,0,1-.373,1.236,1.274,1.274,0,0,1-.987.412,1.23,1.23,0,0,1-.965-.412,1.807,1.807,0,0,1-.369-1.236V65.717a13.036,13.036,0,0,0-.069-1.533,1.633,1.633,0,0,0-.363-.9,1.164,1.164,0,0,0-.938-.35,1.666,1.666,0,0,0-1.69.883,6.2,6.2,0,0,0-.409,2.527v3.534a1.815,1.815,0,0,1-.369,1.233,1.231,1.231,0,0,1-.971.415,1.25,1.25,0,0,1-.971-.415A1.783,1.783,0,0,1,15,69.882V62.4a1.648,1.648,0,0,1,.34-1.121,1.141,1.141,0,0,1,.9-.382,1.225,1.225,0,0,1,.9.36,1.339,1.339,0,0,1,.36.991V62.5a4.52,4.52,0,0,1,1.455-1.2,3.845,3.845,0,0,1,1.726-.383,3.461,3.461,0,0,1,1.7.392A3.088,3.088,0,0,1,23.537,62.5a4.519,4.519,0,0,1,1.419-1.19,3.618,3.618,0,0,1,1.674-.389,3.808,3.808,0,0,1,1.847.422,2.683,2.683,0,0,1,1.157,1.206,5.486,5.486,0,0,1,.337,2.233v5.1a1.79,1.79,0,0,1-.373,1.236,1.269,1.269,0,0,1-.987.412,1.25,1.25,0,0,1-.971-.415,1.783,1.783,0,0,1-.379-1.233v-4.4a9.879,9.879,0,0,0-.072-1.35,1.58,1.58,0,0,0-.386-.853,1.242,1.242,0,0,0-.958-.343,1.73,1.73,0,0,0-.981.307,2.059,2.059,0,0,0-.722.824,6.5,6.5,0,0,0-.288,2.338Zm15.955.448H34.7a3.5,3.5,0,0,0,.36,1.573,2.41,2.41,0,0,0,2.207,1.37,3.05,3.05,0,0,0,.857-.111,2.726,2.726,0,0,0,.752-.343,5.368,5.368,0,0,0,.67-.5c.206-.18.471-.422.8-.729a.854.854,0,0,1,.572-.173.955.955,0,0,1,.654.222.793.793,0,0,1,.249.621,1.736,1.736,0,0,1-.278.83,3.313,3.313,0,0,1-.84.909,4.689,4.689,0,0,1-1.406.723,6.034,6.034,0,0,1-1.949.288,5.217,5.217,0,0,1-3.92-1.435,5.357,5.357,0,0,1-1.4-3.9,6.455,6.455,0,0,1,.347-2.151,4.774,4.774,0,0,1,1-1.7A4.37,4.37,0,0,1,35,61.257a5.849,5.849,0,0,1,2.145-.379,5.071,5.071,0,0,1,2.629.647A4.266,4.266,0,0,1,41.42,63.2a4.409,4.409,0,0,1,.546,2.089,1.306,1.306,0,0,1-.566,1.278,3.556,3.556,0,0,1-1.592.291ZM34.7,65.37h4.741a3.156,3.156,0,0,0-.723-2,2.16,2.16,0,0,0-1.651-.667,2.1,2.1,0,0,0-1.6.674A3.36,3.36,0,0,0,34.7,65.37Zm11.849-3.028v.317a4.605,4.605,0,0,1,1.507-1.337,4.016,4.016,0,0,1,1.883-.425,3.743,3.743,0,0,1,1.847.451A2.841,2.841,0,0,1,53,62.62a3.041,3.041,0,0,1,.337,1.036,11.075,11.075,0,0,1,.075,1.416V69.94a1.734,1.734,0,0,1-.36,1.187,1.191,1.191,0,0,1-.935.4,1.21,1.21,0,0,1-.948-.412,1.725,1.725,0,0,1-.363-1.177V65.583a4.381,4.381,0,0,0-.36-1.981,1.462,1.462,0,0,0-1.429-.683,2.117,2.117,0,0,0-1.275.415,2.379,2.379,0,0,0-.84,1.148,8.17,8.17,0,0,0-.193,2.184v3.276a1.7,1.7,0,0,1-.369,1.19,1.239,1.239,0,0,1-.951.4,1.19,1.19,0,0,1-.932-.412,1.725,1.725,0,0,1-.363-1.177V62.382a1.633,1.633,0,0,1,.327-1.115,1.126,1.126,0,0,1,.889-.369,1.228,1.228,0,0,1,.625.164,1.175,1.175,0,0,1,.445.487,1.738,1.738,0,0,1,.167.794Zm16,7.713v-.337a5.832,5.832,0,0,1-.987,1,3.61,3.61,0,0,1-1.128.6,4.6,4.6,0,0,1-1.4.2,3.63,3.63,0,0,1-1.7-.392,2.867,2.867,0,0,1-1.164-1.082,4.811,4.811,0,0,1-.487-2.393V62.46a1.691,1.691,0,0,1,.353-1.174,1.218,1.218,0,0,1,.942-.389,1.25,1.25,0,0,1,.958.392A1.668,1.668,0,0,1,58.3,62.46v4.185a6.5,6.5,0,0,0,.154,1.527A1.826,1.826,0,0,0,59,69.14a1.58,1.58,0,0,0,1.079.35,2.19,2.19,0,0,0,1.243-.392,2.3,2.3,0,0,0,.853-1.027,8.232,8.232,0,0,0,.219-2.433V62.46a1.668,1.668,0,0,1,.363-1.171,1.238,1.238,0,0,1,.948-.392,1.218,1.218,0,0,1,.942.389A1.691,1.691,0,0,1,65,62.46v7.575a1.631,1.631,0,0,1-.34,1.121A1.21,1.21,0,0,1,62.9,71.14a1.57,1.57,0,0,1-.35-1.086Z" fill="#fecc00"/>
    <g id="Group_1" data-name="Group 1">
      <path id="_528188104" d="M59.118,58.47a32.941,32.941,0,0,1-16.889-4.532,29.045,29.045,0,0,0,4.015-3.726A26.468,26.468,0,0,0,59.118,53.47V44.09c-3.08-1.191-5.266-4.166-5.266-9.652,0-6.049,3.675-13.468,8.207-13.468A4.964,4.964,0,0,1,65,22.03V58.47ZM34.326,46.925a22.252,22.252,0,0,1-4.62-13.455c0-13.807,13.168-25,29.412-25A34.432,34.432,0,0,1,65,8.976V14.1a27.508,27.508,0,0,0-5.882-.631c-12.995,0-23.529,8.954-23.529,20a17.612,17.612,0,0,0,2.888,9.6A18.718,18.718,0,0,1,34.326,46.925Z" fill="#fecc00" fill-rule="evenodd"/>
      <path id="_528185056" d="M20.882,8.47A32.941,32.941,0,0,1,37.771,13a29.051,29.051,0,0,0-4.015,3.726A26.468,26.468,0,0,0,20.882,13.47v7.32c2.643.963,5.36,5.637,5.264,8.146l-.94,17.035h-.73L22.4,30.189h-.646L20.984,45.97H19.969l-1.7-15.781h-.646l-1.7,15.781H15V8.47ZM45.674,20.015a22.252,22.252,0,0,1,4.62,13.455c0,13.807-13.168,25-29.412,25a34.447,34.447,0,0,1-5.889-.506L15,52.84a27.508,27.508,0,0,0,5.882.631c12.995,0,23.529-8.954,23.529-20a17.612,17.612,0,0,0-2.888-9.6,18.715,18.715,0,0,1,4.15-3.85Z" fill="#fecc00" fill-rule="evenodd"/>
    </g>
  </g>
</svg>
