<svg xmlns="http://www.w3.org/2000/svg" width="18" height="13.261" viewBox="0 0 18 13.261">
  <path id="Fill_1101" data-name="Fill 1101" d="M6.049,13.262H5.978a2.252,2.252,0,0,1-.827-.18L.909,11.266A1.508,1.508,0,0,1,0,9.886V1.771A1.494,1.494,0,0,1,2.091.391L5.742,1.951a.6.6,0,0,0,.278.059l.05,0A.6.6,0,0,0,6.3,1.966L11.173.143A2.193,2.193,0,0,1,11.96,0h.059a2.269,2.269,0,0,1,.831.18L17.091,2A1.506,1.506,0,0,1,18,3.376v8.115a1.494,1.494,0,0,1-2.091,1.38l-3.651-1.56a.7.7,0,0,0-.277-.06l-.047,0a.608.608,0,0,0-.235.047L6.827,13.118A2.146,2.146,0,0,1,6.049,13.262Zm5.2-11.551L6.827,3.369,6.75,3.4v8.152l4.423-1.657.077-.031Zm1.5.06V9.886l.1.045,3.65,1.561V3.376Zm-11.25,0V9.886L5.25,11.491V3.376l-.1-.045Z" transform="translate(0 0)" fill="#fff"/>
</svg>
