<svg xmlns="http://www.w3.org/2000/svg" width="16.621" height="18" viewBox="0 0 16.621 18">
  <path id="Fill_1157" data-name="Fill 1157" d="M8.307,18c-.227,0-.452-.008-.668-.025a2.091,2.091,0,0,1-1.883-1.827l-.071-.491a1.03,1.03,0,0,0-.569-.707c-.124-.067-.247-.138-.365-.212a1.176,1.176,0,0,0-.611-.19.765.765,0,0,0-.286.052l-.462.184a2.26,2.26,0,0,1-.83.159A2.012,2.012,0,0,1,.87,14.07,9.028,9.028,0,0,1,.2,12.908a2.088,2.088,0,0,1,.643-2.542l.391-.31a1.025,1.025,0,0,0,.329-.844c0-.063,0-.133,0-.212s0-.149,0-.212a1.025,1.025,0,0,0-.329-.844l-.391-.31A2.089,2.089,0,0,1,.2,5.092,8.977,8.977,0,0,1,.87,3.93a2.012,2.012,0,0,1,1.692-.873,2.26,2.26,0,0,1,.83.159l.462.184a.765.765,0,0,0,.286.052,1.176,1.176,0,0,0,.611-.19c.118-.074.241-.146.365-.212a1.028,1.028,0,0,0,.569-.707l.071-.49A2.093,2.093,0,0,1,7.639.024C7.859.008,8.083,0,8.307,0s.449.008.669.024a2.091,2.091,0,0,1,1.882,1.828l.072.49a1.023,1.023,0,0,0,.568.707c.119.063.239.133.366.212a1.176,1.176,0,0,0,.611.19.768.768,0,0,0,.287-.052l.461-.184a2.263,2.263,0,0,1,.83-.159,2.013,2.013,0,0,1,1.692.873,8.977,8.977,0,0,1,.672,1.162,2.089,2.089,0,0,1-.643,2.542l-.392.31a1.023,1.023,0,0,0-.328.844c0,.07,0,.141,0,.212s0,.142,0,.212a1.023,1.023,0,0,0,.328.844l.392.31a2.088,2.088,0,0,1,.643,2.542,9.027,9.027,0,0,1-.672,1.162,2.013,2.013,0,0,1-1.692.873,2.263,2.263,0,0,1-.83-.159l-.461-.184a.768.768,0,0,0-.287-.052,1.176,1.176,0,0,0-.611.19c-.128.08-.247.149-.366.212a1.026,1.026,0,0,0-.568.707l-.072.491a2.089,2.089,0,0,1-1.882,1.827C8.76,17.992,8.535,18,8.307,18ZM4.134,13.046a2.718,2.718,0,0,1,1.408.418c.113.069.2.12.284.164a2.492,2.492,0,0,1,1.343,1.814l.071.49a.6.6,0,0,0,.508.548c.18.013.368.02.559.02s.379-.007.559-.02a.6.6,0,0,0,.508-.548l.071-.49a2.493,2.493,0,0,1,1.344-1.814c.091-.049.18-.1.285-.164a2.713,2.713,0,0,1,1.407-.418,2.243,2.243,0,0,1,.836.159l.461.184a.738.738,0,0,0,.274.055.544.544,0,0,0,.455-.22,7.492,7.492,0,0,0,.559-.968.59.59,0,0,0-.22-.711l-.392-.311a2.483,2.483,0,0,1-.9-2.068l0-.166,0-.166a2.486,2.486,0,0,1,.9-2.069l.392-.31a.591.591,0,0,0,.22-.712,7.487,7.487,0,0,0-.559-.968.545.545,0,0,0-.456-.221.736.736,0,0,0-.273.055l-.461.185a2.251,2.251,0,0,1-.837.159,2.706,2.706,0,0,1-1.406-.418c-.09-.054-.187-.111-.285-.165A2.489,2.489,0,0,1,9.445,2.558l-.071-.49a.593.593,0,0,0-.508-.547c-.18-.013-.368-.02-.559-.02s-.379.007-.559.02a.593.593,0,0,0-.508.547l-.071.49A2.488,2.488,0,0,1,5.827,4.371c-.085.045-.175.1-.284.165a2.711,2.711,0,0,1-1.407.418A2.255,2.255,0,0,1,3.3,4.794l-.46-.185a.739.739,0,0,0-.273-.055.544.544,0,0,0-.456.221,7.5,7.5,0,0,0-.56.968.594.594,0,0,0,.22.712l.392.31a2.484,2.484,0,0,1,.9,2.069l0,.166,0,.166a2.481,2.481,0,0,1-.9,2.068l-.392.311a.592.592,0,0,0-.22.711,7.45,7.45,0,0,0,.56.968.543.543,0,0,0,.455.22.741.741,0,0,0,.274-.055l.46-.184A2.247,2.247,0,0,1,4.134,13.046Zm4.173-.3A3.75,3.75,0,1,1,12.057,9,3.754,3.754,0,0,1,8.307,12.75Zm0-6A2.25,2.25,0,1,0,10.557,9,2.253,2.253,0,0,0,8.307,6.75Z" transform="translate(0.003)" fill="#fff"/>
</svg>