<svg xmlns="http://www.w3.org/2000/svg" width="68" height="65" viewBox="0 0 68 65">
  <path id="Polygon_2" data-name="Polygon 2" d="M41.135,1.043a5,5,0,0,1,5.484,1.785L50.184,7.6a5,5,0,0,0,2.38,1.736l5.625,1.935a5,5,0,0,1,3.373,4.651l.093,6.006a5,5,0,0,0,.9,2.788L66,29.634a5,5,0,0,1,0,5.732l-3.439,4.917a5,5,0,0,0-.9,2.788l-.093,6.006a5,5,0,0,1-3.373,4.651l-5.625,1.935a5,5,0,0,0-2.38,1.736l-3.565,4.774a5,5,0,0,1-5.484,1.785l-5.657-1.75a5,5,0,0,0-2.955,0l-5.657,1.75a5,5,0,0,1-5.484-1.785L17.816,57.4a5,5,0,0,0-2.38-1.736L9.812,53.728a5,5,0,0,1-3.373-4.651l-.093-6.006a5,5,0,0,0-.9-2.788L2,35.366a5,5,0,0,1,0-5.732l3.439-4.917a5,5,0,0,0,.9-2.788l.093-6.006a5,5,0,0,1,3.373-4.651l5.625-1.935A5,5,0,0,0,17.816,7.6l3.565-4.774a5,5,0,0,1,5.484-1.785l5.657,1.75a5,5,0,0,0,2.955,0Z" fill="#202319"/>
</svg>
