<svg xmlns="http://www.w3.org/2000/svg" width="200" height="200" viewBox="0 0 200 200">
  <path id="Polygon_5" data-name="Polygon 5" d="M123.707,4.657A7,7,0,0,1,134.028,7.98l9.1,23.226a7,7,0,0,0,5.955,4.424l23.743,1.915a7,7,0,0,1,6.259,8.548l-5.794,25.154a7,7,0,0,0,2.155,6.789l18.723,16.746a7,7,0,0,1,0,10.435l-18.723,16.746a7,7,0,0,0-2.155,6.789l5.794,25.154a7,7,0,0,1-6.259,8.548l-23.743,1.915a7,7,0,0,0-5.955,4.424l-9.1,23.226a7,7,0,0,1-10.321,3.323l-19.9-12.882a7,7,0,0,0-7.607,0l-19.9,12.882a7,7,0,0,1-10.321-3.323l-9.1-23.226a7,7,0,0,0-5.955-4.424l-23.743-1.915a7,7,0,0,1-6.259-8.548l5.794-25.154a7,7,0,0,0-2.155-6.789L5.833,105.217a7,7,0,0,1,0-10.435L24.556,78.036a7,7,0,0,0,2.155-6.789L20.917,46.094a7,7,0,0,1,6.259-8.548L50.919,35.63a7,7,0,0,0,5.955-4.424l9.1-23.226A7,7,0,0,1,76.293,4.657L96.2,17.538a7,7,0,0,0,7.607,0Z" fill="#fff"/>
</svg>
