<svg xmlns="http://www.w3.org/2000/svg" width="17" height="17" viewBox="0 0 17 17">
  <path id="Fill_936" data-name="Fill 936" d="M13.91,17a3.092,3.092,0,0,1-3.023-3.739L5.423,10.529a3.091,3.091,0,1,1,0-4.058l5.464-2.732a3.093,3.093,0,1,1,.691,1.382L6.114,7.853a3.1,3.1,0,0,1,0,1.3l5.464,2.732A3.091,3.091,0,1,1,13.91,17Zm0-4.637a1.546,1.546,0,1,0,1.545,1.546A1.539,1.539,0,0,0,13.91,12.363ZM3.091,6.954A1.546,1.546,0,1,0,4.637,8.5,1.546,1.546,0,0,0,3.091,6.954ZM13.91,1.545a1.548,1.548,0,0,0-1.546,1.545A1.546,1.546,0,0,0,13.91,4.637a1.546,1.546,0,0,0,0-3.092Z" transform="translate(0 0)" fill="#fff"/>
</svg>
