<svg xmlns="http://www.w3.org/2000/svg" width="18" height="18" viewBox="0 0 18 18">
  <path id="Fill_1152" data-name="Fill 1152" d="M9,18a9,9,0,1,1,9-9A9.01,9.01,0,0,1,9,18ZM6.763,9.75a16.311,16.311,0,0,0,.821,4.828A5.087,5.087,0,0,0,8.4,16.113c.276.32.478.387.6.387s.324-.067.6-.387a5.087,5.087,0,0,0,.817-1.535,16.311,16.311,0,0,0,.821-4.828Zm5.975,0a17.854,17.854,0,0,1-.912,5.341,8.555,8.555,0,0,1-.445,1.023A7.5,7.5,0,0,0,16.463,9.75Zm-11.2,0h0a7.507,7.507,0,0,0,5.082,6.364,8.558,8.558,0,0,1-.445-1.023A17.824,17.824,0,0,1,5.262,9.75H1.536Zm9.845-7.863a8.555,8.555,0,0,1,.445,1.023,17.854,17.854,0,0,1,.912,5.341h3.725A7.5,7.5,0,0,0,11.381,1.886ZM9,1.5c-.121,0-.324.067-.6.387a5.091,5.091,0,0,0-.817,1.534A16.315,16.315,0,0,0,6.763,8.25h4.475a16.315,16.315,0,0,0-.821-4.829A5.091,5.091,0,0,0,9.6,1.887C9.324,1.567,9.121,1.5,9,1.5Zm-2.381.386A7.507,7.507,0,0,0,1.536,8.25H5.262A17.827,17.827,0,0,1,6.174,2.91,8.555,8.555,0,0,1,6.619,1.886Z" fill="#fff"/>
</svg>
